<svg width="24" height="29" viewBox="0 0 24 29" fill="none" xmlns="http://www.w3.org/2000/svg">
<path d="M11.1727 14.5292L1.46804 4.82457C0.797275 4.15381 0.797275 3.06918 1.46804 2.40555L3.08072 0.792866C3.75148 0.122104 4.83612 0.122104 5.49974 0.792866L12.3786 7.67174L19.2575 0.792866C19.9283 0.122104 21.0129 0.122104 21.6765 0.792866L23.3035 2.39841C23.9742 3.06918 23.9742 4.15381 23.3035 4.81744L13.5988 14.5221C12.9281 15.2 11.8434 15.2 11.1727 14.5292ZM13.5988 28.2299L23.3035 18.5252C23.9742 17.8545 23.9742 16.7698 23.3035 16.1062L21.6908 14.4935C21.02 13.8228 19.9354 13.8228 19.2718 14.4935L12.3858 21.3653L5.50688 14.4864C4.83612 13.8156 3.75148 13.8156 3.08786 14.4864L1.46804 16.0991C0.797275 16.7698 0.797275 17.8545 1.46804 18.5181L11.1727 28.2227C11.8434 28.9006 12.9281 28.9006 13.5988 28.2299Z" fill="#401E00"/>
</svg>
