<svg width="256" height="267" viewBox="0 0 256 267" fill="none" xmlns="http://www.w3.org/2000/svg">
<path d="M256 131C256 201.692 198.692 259 128 259C57.3075 259 0 201.692 0 131C0 60.3075 57.3075 3 128 3C198.692 3 256 60.3075 256 131Z" fill="#202C4D"/>
<path d="M110 71.9999C87.2 66.7999 87.1666 43.4998 90 32.4998C24 85.5 110 -20.0001 11.5 79.4999C68 -55.5 260.5 0.999893 254.5 115C244.833 111.167 221.8 95.3999 207 62.9999C192.2 30.5999 147.833 29.1665 127.5 32.4998C125.667 40.3332 119.6 59.1999 110 71.9999Z" fill="#121724"/>
<path d="M125.5 250C48.7 251.6 14.1667 184.667 6.5 151C6.5 123 164.5 139.333 243.5 151C236.167 183.333 202.3 248.4 125.5 250Z" fill="#273C74"/>
<path d="M116 167.5C116 171.09 113.314 174 110 174C106.686 174 104 171.09 104 167.5C104 163.91 106.686 161 110 161C113.314 161 116 163.91 116 167.5Z" fill="#FFDE2F"/>
<path d="M116 192.5C116 196.09 113.314 199 110 199C106.686 199 104 196.09 104 192.5C104 188.91 106.686 186 110 186C113.314 186 116 188.91 116 192.5Z" fill="#FFDE2F"/>
<path d="M116 217.5C116 221.09 113.314 224 110 224C106.686 224 104 221.09 104 217.5C104 213.91 106.686 211 110 211C113.314 211 116 213.91 116 217.5Z" fill="#FFDE2F"/>
<path fill-rule="evenodd" clip-rule="evenodd" d="M65 123C79.9117 123 92 110.912 92 96C92 81.0883 79.9117 69 65 69C50.0883 69 38 81.0883 38 96C38 110.912 50.0883 123 65 123ZM65 130C83.7777 130 99 114.778 99 96C99 77.2223 83.7777 62 65 62C46.2223 62 31 77.2223 31 96C31 114.778 46.2223 130 65 130Z" fill="#FFD600"/>
<path fill-rule="evenodd" clip-rule="evenodd" d="M160 124C175.464 124 188 111.464 188 96C188 80.536 175.464 68 160 68C144.536 68 132 80.536 132 96C132 111.464 144.536 124 160 124ZM160 132C179.882 132 196 115.882 196 96C196 76.1177 179.882 60 160 60C140.118 60 124 76.1177 124 96C124 115.882 140.118 132 160 132Z" fill="#FFD600"/>
<path fill-rule="evenodd" clip-rule="evenodd" d="M128 96L96 97L95.8126 91.0029L127.813 90.0029L128 96Z" fill="#FFD600"/>
<path d="M171.923 175.649L222.902 158.288L231.685 242.833L181.325 266.162L171.923 175.649Z" fill="#2554D6"/>
<path d="M119.956 168.983L171.923 175.649L181.325 266.162L128.739 253.528L119.956 168.983Z" fill="#2554D6"/>
<path fill-rule="evenodd" clip-rule="evenodd" d="M181.325 266.162L231.685 242.833L222.902 158.288L171.923 175.649L119.956 168.983L128.739 253.528L181.325 266.162ZM182.437 262.341L228.479 241.012L220.306 162.341L173.697 178.214L182.437 262.341ZM170.713 178.518L179.45 262.626L131.503 251.107L123.331 172.44L170.713 178.518Z" fill="#2748A2"/>
<path d="M172 175.86C170.667 171.36 159.4 163.86 125 169.86L172 175.86Z" fill="#FFF1A5"/>
<path d="M171.671 175.958C172.063 171.281 181.574 161.651 216.476 160.546L171.671 175.958Z" fill="#FFF1A5"/>
</svg>
