<svg width="12" height="16" viewBox="0 0 12 16" fill="none" xmlns="http://www.w3.org/2000/svg">
<path d="M10.0538 5.09518L9.14734 4.8524L9.52403 3.44649L10.6916 3.75933L11.2195 1.78911L6.07226 0.409912L5.54432 2.38016L6.68096 2.68471L6.30424 4.09067L5.41835 3.85334C4.1904 3.52428 2.93167 4.23371 2.60271 5.46154L0.990756 11.4773C0.661809 12.7052 1.39166 13.9695 2.61961 14.2984L7.25506 15.5404C8.48301 15.8695 9.72662 15.134 10.0557 13.9061L11.6676 7.89039C11.9965 6.66253 11.2817 5.42431 10.0538 5.09518ZM9.76862 9.77335C9.24504 11.5025 6.72421 11.451 5.51564 13.1125C5.26071 11.0591 2.95723 9.93909 3.51322 8.09924C4.03494 6.37298 6.39018 6.34566 6.82607 8.22776C8.10702 6.95341 10.3268 7.93002 9.76862 9.77335Z" fill="#974700"/>
</svg>
