<svg width="12" height="12" viewBox="0 0 12 12" fill="none" xmlns="http://www.w3.org/2000/svg">
<path d="M9.10774 8.6863L10.8229 6.97113L10.1129 6.26116C9.83621 6.80525 9.5052 7.30678 9.13031 7.76931C8.55634 7.196 7.99113 6.63486 7.42619 6.08821C9.08965 4.31972 10.5947 2.48062 11.7475 0.306409C9.53789 1.53789 7.66839 3.00234 5.87375 4.62966C4.07913 3.00234 2.20963 1.53788 0 0.306396C1.15281 2.48059 2.65784 4.3197 4.32134 6.08821C3.75641 6.63485 3.1912 7.19596 2.61724 7.76929C2.24239 7.30676 1.91134 6.80522 1.63465 6.26114L0.924651 6.97114L2.63983 8.68633C1.98532 9.77368 1.05862 10.5889 0.00123434 11.2734L0.699825 11.972C1.39206 10.9224 2.23715 10.0255 3.291 9.33747L5.00213 11.0486L5.71214 10.3386C5.19026 10.0371 4.6897 9.70337 4.22028 9.3346C4.77724 8.77871 5.33035 8.23176 5.87379 7.68575C6.41722 8.23173 6.97036 8.77871 7.52731 9.3346C7.05789 9.70337 6.55732 10.0371 6.03545 10.3386L6.74545 11.0486L8.45658 9.33746C9.51043 10.0255 10.3555 10.9223 11.0477 11.9719L11.7463 11.2734C10.6889 10.5889 9.76225 9.77364 9.10772 8.68628L9.10774 8.6863Z" fill="#401E00"/>
</svg>
