<svg width="11" height="11" viewBox="0 0 11 11" fill="#2554D6" xmlns="http://www.w3.org/2000/svg">
<path d="M9.73135 8.58739C11.2494 6.49831 11.0667 3.5578 9.18285 1.67393C7.26081 -0.248099 4.23879 -0.399497 2.14336 1.21961C1.83995 0.864392 1.54647 0.509981 1.28384 0.17431L0.1574 1.3008C0.493115 1.5607 0.849489 1.84888 1.20743 2.14638C-0.447985 4.24326 -0.308291 7.29409 1.62719 9.22958C3.50472 11.1071 6.43173 11.2947 8.51949 9.79322L8.9643 10.238L10.6487 10.6575L10.1732 9.02916L9.73136 8.58738L9.73135 8.58739ZM7.0208 5.87684L4.4769 3.333L5.4293 2.38054L4.73484 1.68602C6.70582 1.58771 8.3387 3.94753 7.02076 5.87682L7.0208 5.87684ZM4.68866 1.68864L3.5573 2.82012C3.4199 2.66809 3.27725 2.50971 3.13172 2.34703C3.64163 1.92684 4.17583 1.72418 4.68867 1.68865L4.68866 1.68864ZM2.37287 3.14044C2.53099 3.27847 2.68487 3.41398 2.83245 3.54501L1.65706 4.72044L2.37332 5.43674L3.26809 4.54191L8.48709 9.76083C4.31532 12.5689 -1.0011 7.39682 2.37286 3.14044H2.37287Z" fill="#2554D6"/>
</svg>
