<svg width="18" height="18" viewBox="0 0 18 18" fill="none" xmlns="http://www.w3.org/2000/svg">
<path d="M16.0139 14.9249C14.8753 14.2912 14.2091 13.2095 14.1422 12.2185C13.7836 6.91192 4.94088 6.22059 0.439965 0.921143L0.439911 0.921287C0.673393 7.67386 8.08649 7.64128 12.4525 11.0258C9.62714 9.80224 4.9964 10.0708 1.64419 7.89645C3.208 12.9782 8.7858 11.3051 12.8819 12.6864C10.4426 12.4482 7.22567 13.8259 4.18426 12.7363C6.87004 16.9697 10.3541 14.142 13.7294 14.167C12.027 14.6008 10.2684 16.4981 7.91778 16.3201C10.7817 19.0766 12.2821 16.4007 14.3337 15.3745C14.1268 15.6208 13.9961 15.9344 13.9806 16.2806C13.9434 17.1164 14.5908 17.8242 15.4266 17.8614C16.2624 17.8987 16.9701 17.2513 17.0074 16.4155C17.0375 15.7384 16.6184 15.1455 16.0139 14.9249Z" fill="#974700"/>
</svg>
