<svg width="150" height="183" viewBox="0 0 150 183" fill="none" xmlns="http://www.w3.org/2000/svg">
<path d="M130.761 112.708C130.761 143.933 105.279 169.246 73.8456 169.246C42.4124 169.246 16.9308 143.933 16.9308 112.708C16.9308 81.4831 42.4124 56.1702 73.8456 56.1702C105.279 56.1702 130.761 81.4831 130.761 112.708Z" fill="#202C4D"/>
<path d="M83.1488 53.8823C88.2383 78.1935 87.6121 98.8833 81.7502 100.094C75.8883 101.305 67.0106 82.5787 61.9211 58.2675C56.8317 33.9563 57.4579 13.2665 63.3198 12.0556C69.1816 10.8446 78.0594 29.5711 83.1488 53.8823Z" fill="#FFD600"/>
<path d="M142 113.779L104.938 127.634L104.69 100.598L142 113.779Z" fill="#E96E00"/>
<path fill-rule="evenodd" clip-rule="evenodd" d="M85.9258 92.5488C87.3646 84.1902 86.484 69.8138 83.1488 53.8823C78.0594 29.5711 69.1816 10.8446 63.3198 12.0556C59.7405 12.795 58.1132 20.7968 58.5472 32.4509C56.259 29.6341 54.127 28.2541 52.3622 28.7063C48.5318 29.6877 47.3898 39.0549 48.8564 52.233C47.2074 51.2776 45.7844 51.0001 44.6716 51.5072C39.2298 53.9874 43.2685 74.2941 53.6924 96.8633C63.1448 117.329 74.6019 132.628 80.7131 133.452C83.416 134.655 86.4118 135.323 89.5649 135.323C101.539 135.323 111.247 125.68 111.247 113.785C111.247 101.89 101.539 92.2468 89.5649 92.2468C88.3248 92.2468 87.109 92.3502 85.9258 92.5488Z" fill="#FFD600"/>
<path fill-rule="evenodd" clip-rule="evenodd" d="M48.2415 149.416L58.1883 142.725L71.1354 120.785C71.4382 120.272 72.1024 120.1 72.6189 120.4C73.1354 120.701 73.3087 121.361 73.0059 121.874L60.0588 143.814L59.0407 155.704L48.2415 149.416Z" fill="#E96E00"/>
<path fill-rule="evenodd" clip-rule="evenodd" d="M121.609 162.218L136.048 183L112.186 177.928L108.53 167.341L0 90.3685L3.65531 85.2462L112.186 162.218L121.609 162.218Z" fill="#2554D6"/>
<path fill-rule="evenodd" clip-rule="evenodd" d="M90.3507 111.286C91.1416 111.708 91.4378 112.688 91.0123 113.473L67.8047 156.326L66.9364 174.205L50.4004 165.368L64.9406 154.795L88.1482 111.943C88.5737 111.157 89.5598 110.863 90.3507 111.286Z" fill="#E96E00"/>
</svg>
