<svg width="184" height="230" viewBox="0 0 184 230" fill="none" xmlns="http://www.w3.org/2000/svg">
<ellipse cx="93.1818" cy="114.521" rx="63.1818" ry="62.9567" fill="#202C4D"/>
<ellipse cx="12.0329" cy="50.073" rx="12.0329" ry="50.073" transform="matrix(0.979198 -0.202907 0.2043 0.978908 69.7142 4.88306)" fill="#FFD600"/>
<path d="M168.841 115.714L127.698 131.142L127.422 101.037L168.841 115.714Z" fill="#E96E00"/>
<path fill-rule="evenodd" clip-rule="evenodd" d="M106.592 92.0733C108.189 82.7657 107.212 66.7572 103.509 49.0169C97.8594 21.9456 88.0041 1.09309 81.4968 2.44152C77.5234 3.26487 75.717 12.1751 76.1989 25.1524C73.6587 22.0158 71.2919 20.4791 69.3328 20.9826C65.0807 22.0755 63.8129 32.5061 65.441 47.1803C63.6104 46.1164 62.0307 45.8074 60.7954 46.3722C54.7543 49.134 59.2378 71.746 70.8094 96.8776C81.3027 119.667 94.0214 136.703 100.805 137.621C103.806 138.959 107.132 139.704 110.632 139.704C123.925 139.704 134.701 128.966 134.701 115.72C134.701 102.475 123.925 91.7369 110.632 91.7369C109.255 91.7369 107.906 91.8521 106.592 92.0733Z" fill="#FFD600"/>
<path fill-rule="evenodd" clip-rule="evenodd" d="M64.7583 155.396L75.8004 147.946L90.1732 123.515C90.5093 122.944 91.2466 122.752 91.82 123.087C92.3934 123.422 92.5858 124.157 92.2496 124.728L77.8769 149.159L76.7467 162.399L64.7583 155.396Z" fill="#E96E00"/>
<path fill-rule="evenodd" clip-rule="evenodd" d="M111.504 112.937C112.382 113.408 112.711 114.499 112.239 115.373L86.4757 163.091L85.5118 183L67.155 173.16L83.2962 161.387L109.059 113.669C109.532 112.794 110.626 112.467 111.504 112.937Z" fill="#E96E00"/>
<path d="M36.864 203.296L30.528 229H22.32L19.872 217.804C19.824 217.588 19.752 217.228 19.656 216.724C19.56 216.22 19.44 215.644 19.296 214.996C19.176 214.348 19.068 213.712 18.972 213.088C18.876 212.464 18.804 211.936 18.756 211.504C18.708 211.936 18.624 212.464 18.504 213.088C18.408 213.712 18.3 214.348 18.18 214.996C18.06 215.644 17.94 216.22 17.82 216.724C17.724 217.228 17.652 217.588 17.604 217.804L15.12 229H6.912L0.54 203.296H7.236L10.044 216.184C10.116 216.496 10.212 216.952 10.332 217.552C10.452 218.128 10.572 218.752 10.692 219.424C10.836 220.096 10.968 220.756 11.088 221.404C11.208 222.028 11.292 222.556 11.34 222.988C11.436 222.268 11.556 221.44 11.7 220.504C11.868 219.568 12.048 218.632 12.24 217.696C12.432 216.736 12.612 215.848 12.78 215.032C12.972 214.216 13.128 213.544 13.248 213.016L15.516 203.296H21.96L24.156 213.016C24.276 213.52 24.42 214.192 24.588 215.032C24.78 215.848 24.972 216.736 25.164 217.696C25.356 218.656 25.536 219.604 25.704 220.54C25.872 221.476 25.992 222.292 26.064 222.988C26.136 222.388 26.256 221.644 26.424 220.756C26.592 219.868 26.76 219.004 26.928 218.164C27.096 217.3 27.228 216.652 27.324 216.22L30.168 203.296H36.864ZM62.7587 213.952H73.8467V227.812C72.5267 228.268 71.0027 228.64 69.2747 228.928C67.5707 229.216 65.7827 229.36 63.9107 229.36C61.4387 229.36 59.2667 228.88 57.3947 227.92C55.5467 226.96 54.0947 225.496 53.0387 223.528C52.0067 221.56 51.4907 219.076 51.4907 216.076C51.4907 213.388 52.0067 211.06 53.0387 209.092C54.0707 207.124 55.5827 205.612 57.5747 204.556C59.5907 203.476 62.0627 202.936 64.9907 202.936C66.5987 202.936 68.1227 203.092 69.5627 203.404C71.0027 203.692 72.2507 204.076 73.3067 204.556L71.1107 209.992C70.1987 209.536 69.2387 209.2 68.2307 208.984C67.2227 208.744 66.1547 208.624 65.0267 208.624C63.4907 208.624 62.2547 208.972 61.3187 209.668C60.3827 210.364 59.6987 211.288 59.2667 212.44C58.8587 213.592 58.6547 214.864 58.6547 216.256C58.6547 217.84 58.8827 219.184 59.3387 220.288C59.7947 221.392 60.4547 222.232 61.3187 222.808C62.1827 223.36 63.2387 223.636 64.4867 223.636C64.7747 223.636 65.0987 223.624 65.4587 223.6C65.8187 223.576 66.1667 223.54 66.5027 223.492C66.8627 223.444 67.1387 223.396 67.3307 223.348V219.316H62.7587V213.952ZM113.527 218.776C113.527 220.936 113.119 222.808 112.303 224.392C111.487 225.976 110.251 227.2 108.595 228.064C106.963 228.928 104.911 229.36 102.439 229.36C98.8871 229.36 96.1751 228.46 94.3031 226.66C92.4551 224.836 91.5311 222.256 91.5311 218.92V203.296H98.5151V218.38C98.5151 220.204 98.8511 221.524 99.5231 222.34C100.219 223.156 101.227 223.564 102.547 223.564C103.507 223.564 104.275 223.384 104.851 223.024C105.451 222.664 105.883 222.1 106.147 221.332C106.435 220.564 106.579 219.568 106.579 218.344V203.296H113.527V218.776ZM142.861 229H135.913V208.984H129.649V203.296H149.125V208.984H142.861V229ZM177.434 229H170.486V208.984H164.222V203.296H183.698V208.984H177.434V229Z" fill="#2554D6"/>
</svg>
