<svg width="658" height="256" viewBox="0 0 658 256" fill="none" xmlns="http://www.w3.org/2000/svg">
<ellipse cx="108.364" cy="148.314" rx="81.3636" ry="81.5341" fill="#202C4D"/>
<ellipse cx="15.4992" cy="64.8334" rx="15.4992" ry="64.8334" transform="matrix(0.978969 -0.204011 0.203194 0.979138 78.1428 6.32397)" fill="#FFD600"/>
<path d="M205.795 149.859L152.813 169.839L152.457 130.851L205.795 149.859Z" fill="#E96E00"/>
<path fill-rule="evenodd" clip-rule="evenodd" d="M125.633 119.242C127.69 107.188 126.431 86.4559 121.663 63.4808C114.387 28.4213 101.696 1.4156 93.3161 3.16193C88.1993 4.22824 85.8731 15.7677 86.4936 32.5743C83.2224 28.5122 80.1746 26.5221 77.6517 27.1742C72.1759 28.5895 70.5434 42.098 72.6399 61.1024C70.2826 59.7245 68.2483 59.3243 66.6575 60.0557C58.878 63.6325 64.6516 92.9169 79.5533 125.464C93.0662 154.979 109.445 177.041 118.181 178.23C122.045 179.964 126.328 180.928 130.836 180.928C147.954 180.928 161.831 167.022 161.831 149.867C161.831 132.713 147.954 118.807 130.836 118.807C129.063 118.807 127.325 118.956 125.633 119.242Z" fill="#FFD600"/>
<path fill-rule="evenodd" clip-rule="evenodd" d="M71.7607 201.251L85.9804 191.602L104.489 159.962C104.922 159.222 105.872 158.974 106.61 159.408C107.348 159.842 107.596 160.793 107.163 161.533L88.6544 193.173L87.199 210.32L71.7607 201.251Z" fill="#E96E00"/>
<path fill-rule="evenodd" clip-rule="evenodd" d="M184.137 224.749L206 256L169.868 248.372L164.333 232.452L0 116.703L5.53474 109L169.868 224.749L184.137 224.749Z" fill="#2554D6"/>
<path fill-rule="evenodd" clip-rule="evenodd" d="M131.959 146.263C133.089 146.872 133.513 148.285 132.904 149.418L99.7276 211.216L98.4863 237L74.847 224.256L95.6331 209.009L128.81 147.211C129.418 146.078 130.828 145.653 131.959 146.263Z" fill="#E96E00"/>
<path d="M283.864 135.296L277.528 161H269.32L266.872 149.804C266.824 149.588 266.752 149.228 266.656 148.724C266.56 148.22 266.44 147.644 266.296 146.996C266.176 146.348 266.068 145.712 265.972 145.088C265.876 144.464 265.804 143.936 265.756 143.504C265.708 143.936 265.624 144.464 265.504 145.088C265.408 145.712 265.3 146.348 265.18 146.996C265.06 147.644 264.94 148.22 264.82 148.724C264.724 149.228 264.652 149.588 264.604 149.804L262.12 161H253.912L247.54 135.296H254.236L257.044 148.184C257.116 148.496 257.212 148.952 257.332 149.552C257.452 150.128 257.572 150.752 257.692 151.424C257.836 152.096 257.968 152.756 258.088 153.404C258.208 154.028 258.292 154.556 258.34 154.988C258.436 154.268 258.556 153.44 258.7 152.504C258.868 151.568 259.048 150.632 259.24 149.696C259.432 148.736 259.612 147.848 259.78 147.032C259.972 146.216 260.128 145.544 260.248 145.016L262.516 135.296H268.96L271.156 145.016C271.276 145.52 271.42 146.192 271.588 147.032C271.78 147.848 271.972 148.736 272.164 149.696C272.356 150.656 272.536 151.604 272.704 152.54C272.872 153.476 272.992 154.292 273.064 154.988C273.136 154.388 273.256 153.644 273.424 152.756C273.592 151.868 273.76 151.004 273.928 150.164C274.096 149.3 274.228 148.652 274.324 148.22L277.168 135.296H283.864ZM308.399 140.732C310.919 140.732 312.887 141.356 314.303 142.604C315.719 143.852 316.427 145.628 316.427 147.932V161H311.675L310.343 158.372H310.199C309.647 159.068 309.071 159.644 308.471 160.1C307.895 160.532 307.223 160.844 306.455 161.036C305.687 161.252 304.751 161.36 303.647 161.36C302.495 161.36 301.463 161.132 300.551 160.676C299.639 160.196 298.919 159.488 298.391 158.552C297.863 157.592 297.599 156.38 297.599 154.916C297.599 152.78 298.331 151.196 299.795 150.164C301.283 149.132 303.431 148.556 306.239 148.436L309.551 148.328V148.04C309.551 147.152 309.335 146.528 308.903 146.168C308.471 145.784 307.883 145.592 307.139 145.592C306.347 145.592 305.471 145.736 304.511 146.024C303.551 146.288 302.579 146.636 301.595 147.068L299.615 142.532C300.767 141.932 302.063 141.488 303.503 141.2C304.967 140.888 306.599 140.732 308.399 140.732ZM308.003 152.18C306.755 152.228 305.867 152.456 305.339 152.864C304.835 153.248 304.583 153.8 304.583 154.52C304.583 155.192 304.763 155.696 305.123 156.032C305.483 156.344 305.963 156.5 306.563 156.5C307.403 156.5 308.111 156.236 308.687 155.708C309.287 155.18 309.587 154.496 309.587 153.656V152.108L308.003 152.18ZM345.733 140.732C346.117 140.732 346.513 140.756 346.921 140.804C347.329 140.852 347.629 140.9 347.821 140.948L347.209 147.428C346.969 147.38 346.669 147.332 346.309 147.284C345.973 147.236 345.493 147.212 344.869 147.212C344.437 147.212 343.969 147.26 343.465 147.356C342.985 147.428 342.517 147.596 342.061 147.86C341.629 148.124 341.269 148.52 340.981 149.048C340.717 149.576 340.585 150.296 340.585 151.208V161H333.709V141.092H338.821L339.901 144.26H340.225C340.585 143.612 341.053 143.024 341.629 142.496C342.205 141.944 342.841 141.512 343.537 141.2C344.257 140.888 344.989 140.732 345.733 140.732ZM395.863 145.952H406.951V159.812C405.631 160.268 404.107 160.64 402.379 160.928C400.675 161.216 398.887 161.36 397.015 161.36C394.543 161.36 392.371 160.88 390.499 159.92C388.651 158.96 387.199 157.496 386.143 155.528C385.111 153.56 384.595 151.076 384.595 148.076C384.595 145.388 385.111 143.06 386.143 141.092C387.175 139.124 388.687 137.612 390.679 136.556C392.695 135.476 395.167 134.936 398.095 134.936C399.703 134.936 401.227 135.092 402.667 135.404C404.107 135.692 405.355 136.076 406.411 136.556L404.215 141.992C403.303 141.536 402.343 141.2 401.335 140.984C400.327 140.744 399.259 140.624 398.131 140.624C396.595 140.624 395.359 140.972 394.423 141.668C393.487 142.364 392.803 143.288 392.371 144.44C391.963 145.592 391.759 146.864 391.759 148.256C391.759 149.84 391.987 151.184 392.443 152.288C392.899 153.392 393.559 154.232 394.423 154.808C395.287 155.36 396.343 155.636 397.591 155.636C397.879 155.636 398.203 155.624 398.563 155.6C398.923 155.576 399.271 155.54 399.607 155.492C399.967 155.444 400.243 155.396 400.435 155.348V151.316H395.863V145.952ZM434.104 140.732C436.624 140.732 438.592 141.356 440.008 142.604C441.424 143.852 442.132 145.628 442.132 147.932V161H437.38L436.048 158.372H435.904C435.352 159.068 434.776 159.644 434.176 160.1C433.6 160.532 432.928 160.844 432.16 161.036C431.392 161.252 430.456 161.36 429.352 161.36C428.2 161.36 427.168 161.132 426.256 160.676C425.344 160.196 424.624 159.488 424.096 158.552C423.568 157.592 423.304 156.38 423.304 154.916C423.304 152.78 424.036 151.196 425.5 150.164C426.988 149.132 429.136 148.556 431.944 148.436L435.256 148.328V148.04C435.256 147.152 435.04 146.528 434.608 146.168C434.176 145.784 433.588 145.592 432.844 145.592C432.052 145.592 431.176 145.736 430.216 146.024C429.256 146.288 428.284 146.636 427.3 147.068L425.32 142.532C426.472 141.932 427.768 141.488 429.208 141.2C430.672 140.888 432.304 140.732 434.104 140.732ZM433.708 152.18C432.46 152.228 431.572 152.456 431.044 152.864C430.54 153.248 430.288 153.8 430.288 154.52C430.288 155.192 430.468 155.696 430.828 156.032C431.188 156.344 431.668 156.5 432.268 156.5C433.108 156.5 433.816 156.236 434.392 155.708C434.992 155.18 435.292 154.496 435.292 153.656V152.108L433.708 152.18ZM483.714 140.732C485.994 140.732 487.734 141.308 488.934 142.46C490.134 143.612 490.734 145.472 490.734 148.04V161H483.858V150.164C483.858 148.652 483.654 147.608 483.246 147.032C482.838 146.432 482.238 146.132 481.446 146.132C480.342 146.132 479.574 146.624 479.142 147.608C478.71 148.568 478.494 149.936 478.494 151.712V161H471.618V150.164C471.618 149.204 471.534 148.436 471.366 147.86C471.198 147.26 470.946 146.828 470.61 146.564C470.274 146.276 469.842 146.132 469.314 146.132C468.522 146.132 467.898 146.372 467.442 146.852C467.01 147.332 466.71 148.028 466.542 148.94C466.374 149.852 466.29 150.968 466.29 152.288V161H459.414V141.092H464.598L465.606 143.54H465.786C466.146 142.988 466.602 142.508 467.154 142.1C467.706 141.668 468.366 141.332 469.134 141.092C469.902 140.852 470.778 140.732 471.762 140.732C473.226 140.732 474.426 140.984 475.362 141.488C476.322 141.968 477.102 142.64 477.702 143.504H477.918C478.542 142.616 479.346 141.932 480.33 141.452C481.338 140.972 482.466 140.732 483.714 140.732ZM516.978 140.732C518.922 140.732 520.59 141.068 521.982 141.74C523.398 142.412 524.478 143.42 525.222 144.764C525.99 146.108 526.374 147.8 526.374 149.84V152.9H514.098C514.146 153.932 514.53 154.784 515.25 155.456C515.994 156.128 517.062 156.464 518.454 156.464C519.702 156.464 520.842 156.344 521.874 156.104C522.906 155.864 523.974 155.48 525.078 154.952V159.884C524.118 160.388 523.062 160.76 521.91 161C520.782 161.24 519.354 161.36 517.626 161.36C515.61 161.36 513.81 161.012 512.226 160.316C510.666 159.596 509.43 158.48 508.518 156.968C507.606 155.456 507.15 153.524 507.15 151.172C507.15 148.772 507.558 146.804 508.374 145.268C509.214 143.732 510.366 142.592 511.83 141.848C513.318 141.104 515.034 140.732 516.978 140.732ZM517.23 145.412C516.414 145.412 515.73 145.664 515.178 146.168C514.65 146.672 514.338 147.476 514.242 148.58H520.146C520.146 147.98 520.026 147.452 519.786 146.996C519.57 146.516 519.246 146.132 518.814 145.844C518.382 145.556 517.854 145.412 517.23 145.412ZM587.067 150.776C587.067 152.936 586.659 154.808 585.843 156.392C585.027 157.976 583.791 159.2 582.135 160.064C580.503 160.928 578.451 161.36 575.979 161.36C572.427 161.36 569.715 160.46 567.843 158.66C565.995 156.836 565.071 154.256 565.071 150.92V135.296H572.055V150.38C572.055 152.204 572.391 153.524 573.063 154.34C573.759 155.156 574.767 155.564 576.087 155.564C577.047 155.564 577.815 155.384 578.391 155.024C578.991 154.664 579.423 154.1 579.687 153.332C579.975 152.564 580.119 151.568 580.119 150.344V135.296H587.067V150.776ZM616.401 161H609.453V140.984H603.189V135.296H622.665V140.984H616.401V161ZM650.974 161H644.026V140.984H637.762V135.296H657.238V140.984H650.974V161Z" fill="#2554D6"/>
</svg>
