<svg width="273" height="316" viewBox="0 0 273 316" fill="none" xmlns="http://www.w3.org/2000/svg">
<path d="M256 181.926C256 252.619 198.692 309.926 128 309.926C57.3075 309.926 0 252.619 0 181.926C0 111.234 57.3075 53.9264 128 53.9264C198.692 53.9264 256 111.234 256 181.926Z" fill="#273C74"/>
<path d="M110 122.926C87.2 117.726 87.1666 94.4262 90 83.4262C24 136.426 110 30.9263 11.5 130.426C68 -4.57365 260.5 51.9263 254.5 165.926C244.833 162.093 221.8 146.326 207 113.926C192.2 81.5263 147.833 80.0929 127.5 83.4262C125.667 91.2596 119.6 110.126 110 122.926Z" fill="#202C4D"/>
<path d="M125.5 300.926C48.7 302.526 14.1667 235.593 6.5 201.926C6.5 173.926 164.5 190.26 243.5 201.926C236.167 234.26 202.3 299.326 125.5 300.926Z" fill="#121724"/>
<path d="M116 218.426C116 222.016 113.314 224.926 110 224.926C106.686 224.926 104 222.016 104 218.426C104 214.837 106.686 211.926 110 211.926C113.314 211.926 116 214.837 116 218.426Z" fill="#BA5800"/>
<path d="M116 243.426C116 247.016 113.314 249.926 110 249.926C106.686 249.926 104 247.016 104 243.426C104 239.837 106.686 236.926 110 236.926C113.314 236.926 116 239.837 116 243.426Z" fill="#BA5800"/>
<path d="M116 268.426C116 272.016 113.314 274.926 110 274.926C106.686 274.926 104 272.016 104 268.426C104 264.837 106.686 261.926 110 261.926C113.314 261.926 116 264.837 116 268.426Z" fill="#BA5800"/>
<path fill-rule="evenodd" clip-rule="evenodd" d="M65 173.926C79.9117 173.926 92 161.838 92 146.926C92 132.015 79.9117 119.926 65 119.926C50.0883 119.926 38 132.015 38 146.926C38 161.838 50.0883 173.926 65 173.926ZM65 180.926C83.7777 180.926 99 165.704 99 146.926C99 128.149 83.7777 112.926 65 112.926C46.2223 112.926 31 128.149 31 146.926C31 165.704 46.2223 180.926 65 180.926Z" fill="#E96E00"/>
<path fill-rule="evenodd" clip-rule="evenodd" d="M128 146.926L96 147.926L95.8126 141.929L127.813 140.929L128 146.926Z" fill="#E96E00"/>
<path d="M179.967 225.433L230.946 208.073L239.729 292.618L189.37 315.946L179.967 225.433Z" fill="#2748A2"/>
<path d="M128 218.767L179.967 225.433L189.37 315.946L136.783 303.312L128 218.767Z" fill="#2748A2"/>
<path fill-rule="evenodd" clip-rule="evenodd" d="M189.37 315.946L239.729 292.618L230.946 208.073L179.967 225.433L128 218.767L136.783 303.312L189.37 315.946ZM190.481 312.125L236.524 290.796L228.351 212.126L181.741 227.998L190.481 312.125ZM178.757 228.303L187.495 312.41L139.548 300.891L131.375 222.225L178.757 228.303Z" fill="#273C74"/>
<path d="M180.044 225.645C178.711 221.145 167.444 213.645 133.044 219.645L180.044 225.645Z" fill="#401E00"/>
<path d="M179.715 225.743C180.108 221.066 189.618 211.436 224.52 210.331L179.715 225.743Z" fill="#401E00"/>
<path d="M145.5 8.57288L105 62.0729C132.145 107.265 157.983 115.728 208 124.573L238 69.0729C193.6 61.8729 157.833 25.7395 145.5 8.57288Z" fill="#121724"/>
<path d="M206.291 14.5034L272.177 93.3657L161.565 90.745L99.0001 0.307658L206.291 14.5034Z" fill="#2554D6"/>
<path fill-rule="evenodd" clip-rule="evenodd" d="M160 174.926C175.464 174.926 188 162.39 188 146.926C188 131.462 175.464 118.926 160 118.926C144.536 118.926 132 131.462 132 146.926C132 162.39 144.536 174.926 160 174.926ZM160 182.926C179.882 182.926 196 166.809 196 146.926C196 127.044 179.882 110.926 160 110.926C140.118 110.926 124 127.044 124 146.926C124 166.809 140.118 182.926 160 182.926Z" fill="#E96E00"/>
<path fill-rule="evenodd" clip-rule="evenodd" d="M244 186.073V92.6979L252.5 92.893L254 186.073H244Z" fill="#BA5800"/>
<path fill-rule="evenodd" clip-rule="evenodd" d="M243.995 92.7107L177.397 39.6782L180.897 39.6782L252.508 92.9049L243.995 92.7107Z" fill="#BA5800"/>
</svg>
