<svg width="256" height="260" viewBox="0 0 256 260" fill="none" xmlns="http://www.w3.org/2000/svg">
<path d="M256 131.073C256 201.766 198.692 259.073 128 259.073C57.3075 259.073 0 201.766 0 131.073C0 60.3808 57.3075 3.07324 128 3.07324C198.692 3.07324 256 60.3808 256 131.073Z" fill="#202C4D"/>
<path d="M110 72.0731C87.2 66.8731 87.1666 43.5731 90 32.5731C24 85.5732 110 -19.9268 11.5 79.5732C68 -55.4268 260.5 1.07314 254.5 115.073C244.833 111.24 221.8 95.4731 207 63.0731C192.2 30.6731 147.833 29.2397 127.5 32.5731C125.667 40.4064 119.6 59.2731 110 72.0731Z" fill="#121724"/>
<path d="M125.5 250.073C48.7 251.673 14.1667 184.74 6.5 151.073C6.5 123.073 164.5 139.407 243.5 151.073C236.167 183.407 202.3 248.473 125.5 250.073Z" fill="#273C74"/>
<path d="M116 167.573C116 171.163 113.314 174.073 110 174.073C106.686 174.073 104 171.163 104 167.573C104 163.983 106.686 161.073 110 161.073C113.314 161.073 116 163.983 116 167.573Z" fill="#FFDE2F"/>
<path d="M116 192.573C116 196.163 113.314 199.073 110 199.073C106.686 199.073 104 196.163 104 192.573C104 188.983 106.686 186.073 110 186.073C113.314 186.073 116 188.983 116 192.573Z" fill="#FFDE2F"/>
<path d="M116 217.573C116 221.163 113.314 224.073 110 224.073C106.686 224.073 104 221.163 104 217.573C104 213.983 106.686 211.073 110 211.073C113.314 211.073 116 213.983 116 217.573Z" fill="#FFDE2F"/>
<path fill-rule="evenodd" clip-rule="evenodd" d="M65 123.073C79.9117 123.073 92 110.985 92 96.0732C92 81.1616 79.9117 69.0732 65 69.0732C50.0883 69.0732 38 81.1616 38 96.0732C38 110.985 50.0883 123.073 65 123.073ZM65 130.073C83.7777 130.073 99 114.851 99 96.0732C99 77.2956 83.7777 62.0732 65 62.0732C46.2223 62.0732 31 77.2956 31 96.0732C31 114.851 46.2223 130.073 65 130.073Z" fill="#FFD600"/>
<path fill-rule="evenodd" clip-rule="evenodd" d="M160 124.073C175.464 124.073 188 111.537 188 96.0732C188 80.6093 175.464 68.0732 160 68.0732C144.536 68.0732 132 80.6093 132 96.0732C132 111.537 144.536 124.073 160 124.073ZM160 132.073C179.882 132.073 196 115.955 196 96.0732C196 76.191 179.882 60.0732 160 60.0732C140.118 60.0732 124 76.191 124 96.0732C124 115.955 140.118 132.073 160 132.073Z" fill="#FFD600"/>
<path fill-rule="evenodd" clip-rule="evenodd" d="M128 96.0732L96 97.0732L95.8126 91.0762L127.813 90.0762L128 96.0732Z" fill="#FFD600"/>
</svg>
