<svg width="24" height="29" viewBox="0 0 24 29" fill="none" xmlns="http://www.w3.org/2000/svg">
<path d="M13.1904 14.7535L22.895 24.4582C23.5658 25.1289 23.5658 26.2136 22.895 26.8772L21.2823 28.4899C20.6116 29.1607 19.5269 29.1607 18.8633 28.4899L11.9773 21.6181L5.0984 28.497C4.42764 29.1678 3.343 29.1678 2.67938 28.497L1.05956 26.8843C0.388798 26.2136 0.388798 25.1289 1.05956 24.4653L10.7642 14.7607C11.435 14.0828 12.5196 14.0828 13.1904 14.7535ZM10.7642 1.05288L1.05956 10.7575C0.388798 11.4283 0.388798 12.5129 1.05956 13.1765L2.67224 14.7892C3.343 15.46 4.42764 15.46 5.09127 14.7892L11.9701 7.91035L18.849 14.7892C19.5198 15.46 20.6044 15.46 21.268 14.7892L22.8807 13.1765C23.5515 12.5058 23.5515 11.4211 22.8807 10.7575L13.1761 1.05288C12.5196 0.382114 11.435 0.382114 10.7642 1.05288Z" fill="#FFF1A5"/>
</svg>
